<svg id="visual" viewBox="0 0 960 540" width="960" height="540" xmlns="http://www.w3.org/2000/svg" xmlns:xlink="http://www.w3.org/1999/xlink" version="1.1"><g stroke-width="1" stroke-linejoin="bevel"><path d="M470.7 273.5L514.7 227.4L456 262.4Z" fill="#6a47f9" stroke="#6a47f9"></path><path d="M514.7 227.4L477.3 200.5L456 262.4Z" fill="#6619fe" stroke="#6619fe"></path><path d="M407.3 276.4L479.7 290.6L470.7 273.5Z" fill="#6600ff" stroke="#6600ff"></path><path d="M470.7 273.5L479.7 290.6L514.7 227.4Z" fill="#6c4df7" stroke="#6c4df7"></path><path d="M514.7 227.4L507.3 191.4L477.3 200.5Z" fill="#6d52f6" stroke="#6d52f6"></path><path d="M429 197.5L420.7 215.5L477.3 200.5Z" fill="#715df2" stroke="#715df2"></path><path d="M477.3 200.5L420.7 215.5L456 262.4Z" fill="#6600ff" stroke="#6600ff"></path><path d="M420.7 142.3L429 197.5L477.3 200.5Z" fill="#6730fc" stroke="#6730fc"></path><path d="M559 269.4L558 216.3L514.7 227.4Z" fill="#6839fb" stroke="#6839fb"></path><path d="M514.7 227.4L558 216.3L507.3 191.4Z" fill="#6d52f6" stroke="#6d52f6"></path><path d="M479.7 290.6L559 269.4L514.7 227.4Z" fill="#6f58f4" stroke="#6f58f4"></path><path d="M420.7 215.5L407.3 276.4L456 262.4Z" fill="#6619fe" stroke="#6619fe"></path><path d="M456 262.4L407.3 276.4L470.7 273.5Z" fill="#6626fd" stroke="#6626fd"></path><path d="M564.3 199.3L508.3 161.2L507.3 191.4Z" fill="#6d52f6" stroke="#6d52f6"></path><path d="M507.3 191.4L508.3 161.2L477.3 200.5Z" fill="#6626fd" stroke="#6626fd"></path><path d="M579.7 243.5L564.3 199.3L558 216.3Z" fill="#6d52f6" stroke="#6d52f6"></path><path d="M558 216.3L564.3 199.3L507.3 191.4Z" fill="#6f58f4" stroke="#6f58f4"></path><path d="M429 197.5L406.7 190.4L420.7 215.5Z" fill="#6600ff" stroke="#6600ff"></path><path d="M420.7 215.5L388.3 244.5L407.3 276.4Z" fill="#6940fa" stroke="#6940fa"></path><path d="M420.7 142.3L406.7 190.4L429 197.5Z" fill="#6940fa" stroke="#6940fa"></path><path d="M406.7 190.4L388.3 244.5L420.7 215.5Z" fill="#6626fd" stroke="#6626fd"></path><path d="M559 269.4L579.7 243.5L558 216.3Z" fill="#6f58f4" stroke="#6f58f4"></path><path d="M450 347.6L490 340.5L479.7 290.6Z" fill="#6839fb" stroke="#6839fb"></path><path d="M479.7 290.6L570.3 313.6L559 269.4Z" fill="#6730fc" stroke="#6730fc"></path><path d="M559 269.4L579.3 272.5L579.7 243.5Z" fill="#6600ff" stroke="#6600ff"></path><path d="M570.3 313.6L579.3 272.5L559 269.4Z" fill="#6730fc" stroke="#6730fc"></path><path d="M407.3 276.4L450 347.6L479.7 290.6Z" fill="#6626fd" stroke="#6626fd"></path><path d="M490 340.5L570.3 313.6L479.7 290.6Z" fill="#6c4df7" stroke="#6c4df7"></path><path d="M570.3 313.6L595.7 273.5L579.3 272.5Z" fill="#715df2" stroke="#715df2"></path><path d="M579.3 272.5L595.7 273.5L579.7 243.5Z" fill="#6940fa" stroke="#6940fa"></path><path d="M579.7 243.5L659.7 223.3L564.3 199.3Z" fill="#6c4df7" stroke="#6c4df7"></path><path d="M508.3 161.2L420.7 142.3L477.3 200.5Z" fill="#6f58f4" stroke="#6f58f4"></path><path d="M332.3 187.5L328.7 281.5L388.3 244.5Z" fill="#6626fd" stroke="#6626fd"></path><path d="M388.3 244.5L380.3 304.6L407.3 276.4Z" fill="#6a47f9" stroke="#6a47f9"></path><path d="M407.3 276.4L380.3 304.6L450 347.6Z" fill="#6619fe" stroke="#6619fe"></path><path d="M380.3 304.6L443.3 362.8L450 347.6Z" fill="#6a47f9" stroke="#6a47f9"></path><path d="M450 347.6L483 396.8L490 340.5Z" fill="#6c4df7" stroke="#6c4df7"></path><path d="M575 364.6L583 330.7L570.3 313.6Z" fill="#6940fa" stroke="#6940fa"></path><path d="M636.3 111.3L480.3 111.1L508.3 161.2Z" fill="#6600ff" stroke="#6600ff"></path><path d="M508.3 161.2L473 109.2L420.7 142.3Z" fill="#6626fd" stroke="#6626fd"></path><path d="M480.3 111.1L473 109.2L508.3 161.2Z" fill="#6940fa" stroke="#6940fa"></path><path d="M575 364.6L570.3 313.6L490 340.5Z" fill="#6619fe" stroke="#6619fe"></path><path d="M570.3 313.6L623.3 289.5L595.7 273.5Z" fill="#6619fe" stroke="#6619fe"></path><path d="M397.7 42.2L451.3 103.3L436.7 20.1Z" fill="#6839fb" stroke="#6839fb"></path><path d="M473 109.2L451.3 103.3L420.7 142.3Z" fill="#6940fa" stroke="#6940fa"></path><path d="M583 330.7L623.3 289.5L570.3 313.6Z" fill="#6839fb" stroke="#6839fb"></path><path d="M595.7 273.5L659.7 223.3L579.7 243.5Z" fill="#6940fa" stroke="#6940fa"></path><path d="M518.3 395.7L575 364.6L490 340.5Z" fill="#6a47f9" stroke="#6a47f9"></path><path d="M650 342.5L656 310.5L623.3 289.5Z" fill="#6f58f4" stroke="#6f58f4"></path><path d="M443.3 362.8L483 396.8L450 347.6Z" fill="#6619fe" stroke="#6619fe"></path><path d="M483 396.8L518.3 395.7L490 340.5Z" fill="#715df2" stroke="#715df2"></path><path d="M332.3 187.5L388.3 244.5L406.7 190.4Z" fill="#6a47f9" stroke="#6a47f9"></path><path d="M388.3 244.5L328.7 281.5L380.3 304.6Z" fill="#6940fa" stroke="#6940fa"></path><path d="M380.3 304.6L388 393.8L443.3 362.8Z" fill="#715df2" stroke="#715df2"></path><path d="M443.3 362.8L439.7 408.8L483 396.8Z" fill="#6619fe" stroke="#6619fe"></path><path d="M340.7 69.1L332.3 187.5L420.7 142.3Z" fill="#6940fa" stroke="#6940fa"></path><path d="M420.7 142.3L332.3 187.5L406.7 190.4Z" fill="#6c4df7" stroke="#6c4df7"></path><path d="M328.7 281.5L348 332.5L380.3 304.6Z" fill="#6600ff" stroke="#6600ff"></path><path d="M388 393.8L439.7 408.8L443.3 362.8Z" fill="#6940fa" stroke="#6940fa"></path><path d="M483 396.8L524.7 415.9L518.3 395.7Z" fill="#6626fd" stroke="#6626fd"></path><path d="M623.3 289.5L659.7 223.3L595.7 273.5Z" fill="#6839fb" stroke="#6839fb"></path><path d="M564.3 199.3L636.3 111.3L508.3 161.2Z" fill="#6619fe" stroke="#6619fe"></path><path d="M496.7 466.7L524.7 415.9L483 396.8Z" fill="#6a47f9" stroke="#6a47f9"></path><path d="M518.3 395.7L524.7 415.9L575 364.6Z" fill="#6940fa" stroke="#6940fa"></path><path d="M348 332.5L388 393.8L380.3 304.6Z" fill="#6f58f4" stroke="#6f58f4"></path><path d="M550.3 446.9L605.7 380.8L575 364.6Z" fill="#6a47f9" stroke="#6a47f9"></path><path d="M575 364.6L605.7 380.8L583 330.7Z" fill="#6d52f6" stroke="#6d52f6"></path><path d="M623.3 289.5L656 310.5L659.7 223.3Z" fill="#6626fd" stroke="#6626fd"></path><path d="M650 342.5L623.3 289.5L583 330.7Z" fill="#6600ff" stroke="#6600ff"></path><path d="M332.3 187.5L300 277.5L328.7 281.5Z" fill="#6730fc" stroke="#6730fc"></path><path d="M328.7 281.5L307.7 340.6L348 332.5Z" fill="#6839fb" stroke="#6839fb"></path><path d="M340.3 418.7L345.7 420.9L388 393.8Z" fill="#6f58f4" stroke="#6f58f4"></path><path d="M605.7 380.8L650 342.5L583 330.7Z" fill="#6a47f9" stroke="#6a47f9"></path><path d="M659.7 223.3L636.3 111.3L564.3 199.3Z" fill="#715df2" stroke="#715df2"></path><path d="M436.7 20.1L451.3 103.3L473 109.2Z" fill="#715df2" stroke="#715df2"></path><path d="M282.3 319.5L307.7 340.6L328.7 281.5Z" fill="#6d52f6" stroke="#6d52f6"></path><path d="M388 393.8L445 446.7L439.7 408.8Z" fill="#6730fc" stroke="#6730fc"></path><path d="M439.7 408.8L445 446.7L483 396.8Z" fill="#6a47f9" stroke="#6a47f9"></path><path d="M368.7 480.9L445 446.7L388 393.8Z" fill="#6940fa" stroke="#6940fa"></path><path d="M300 277.5L282.3 319.5L328.7 281.5Z" fill="#6730fc" stroke="#6730fc"></path><path d="M271 302.6L282.3 319.5L300 277.5Z" fill="#715df2" stroke="#715df2"></path><path d="M496.7 466.7L550.3 446.9L524.7 415.9Z" fill="#6626fd" stroke="#6626fd"></path><path d="M524.7 415.9L550.3 446.9L575 364.6Z" fill="#6730fc" stroke="#6730fc"></path><path d="M605.7 380.8L645.7 399.7L650 342.5Z" fill="#6730fc" stroke="#6730fc"></path><path d="M436.7 20.1L473 109.2L520 0Z" fill="#6940fa" stroke="#6940fa"></path><path d="M451.3 103.3L397.7 42.2L420.7 142.3Z" fill="#6730fc" stroke="#6730fc"></path><path d="M254.7 172.4L300 277.5L332.3 187.5Z" fill="#6a47f9" stroke="#6a47f9"></path><path d="M254.7 172.4L271 302.6L300 277.5Z" fill="#6839fb" stroke="#6839fb"></path><path d="M397.7 42.2L340.7 69.1L420.7 142.3Z" fill="#6a47f9" stroke="#6a47f9"></path><path d="M550.3 446.9L615.7 422.6L605.7 380.8Z" fill="#6730fc" stroke="#6730fc"></path><path d="M445 446.7L496.7 466.7L483 396.8Z" fill="#6730fc" stroke="#6730fc"></path><path d="M708.7 325.5L656 310.5L650 342.5Z" fill="#6f58f4" stroke="#6f58f4"></path><path d="M708.7 325.5L701.3 299.5L656 310.5Z" fill="#6a47f9" stroke="#6a47f9"></path><path d="M656 310.5L701.3 299.5L659.7 223.3Z" fill="#6c4df7" stroke="#6c4df7"></path><path d="M659.7 223.3L687.7 120.3L636.3 111.3Z" fill="#6a47f9" stroke="#6a47f9"></path><path d="M348 332.5L307.7 340.6L307.7 391.8Z" fill="#6c4df7" stroke="#6c4df7"></path><path d="M340.3 418.7L348 332.5L307.7 391.8Z" fill="#6f58f4" stroke="#6f58f4"></path><path d="M340.3 418.7L388 393.8L348 332.5Z" fill="#6f58f4" stroke="#6f58f4"></path><path d="M445 446.7L462.7 540L496.7 466.7Z" fill="#6c4df7" stroke="#6c4df7"></path><path d="M520 0L473 109.2L480.3 111.1Z" fill="#6f58f4" stroke="#6f58f4"></path><path d="M397.7 42.2L373.3 24.2L340.7 69.1Z" fill="#6a47f9" stroke="#6a47f9"></path><path d="M615.7 422.6L645.7 399.7L605.7 380.8Z" fill="#6730fc" stroke="#6730fc"></path><path d="M307.7 391.8L307.7 340.6L275.3 363.7Z" fill="#6839fb" stroke="#6839fb"></path><path d="M275.3 363.7L307.7 340.6L282.3 319.5Z" fill="#6c4df7" stroke="#6c4df7"></path><path d="M340.7 69.1L288 116.4L332.3 187.5Z" fill="#6f58f4" stroke="#6f58f4"></path><path d="M288 116.4L279 131.2L332.3 187.5Z" fill="#6d52f6" stroke="#6d52f6"></path><path d="M745.3 155.4L687.7 120.3L659.7 223.3Z" fill="#6d52f6" stroke="#6d52f6"></path><path d="M559.3 0L520 0L480.3 111.1Z" fill="#6d52f6" stroke="#6d52f6"></path><path d="M279 131.2L254.7 172.4L332.3 187.5Z" fill="#6600ff" stroke="#6600ff"></path><path d="M288 116.4L265.7 106.3L279 131.2Z" fill="#6940fa" stroke="#6940fa"></path><path d="M279 131.2L236.7 170.2L254.7 172.4Z" fill="#715df2" stroke="#715df2"></path><path d="M340.7 69.1L294.3 95.1L288 116.4Z" fill="#6600ff" stroke="#6600ff"></path><path d="M695.3 376.6L708.7 325.5L650 342.5Z" fill="#6626fd" stroke="#6626fd"></path><path d="M694.3 108.1L690.7 107.2L687.7 120.3Z" fill="#6d52f6" stroke="#6d52f6"></path><path d="M550.3 446.9L576.3 463.8L615.7 422.6Z" fill="#6940fa" stroke="#6940fa"></path><path d="M661.3 424.7L695.3 376.6L645.7 399.7Z" fill="#6839fb" stroke="#6839fb"></path><path d="M496.7 466.7L576.3 463.8L550.3 446.9Z" fill="#6940fa" stroke="#6940fa"></path><path d="M230.7 314.5L275.3 363.7L282.3 319.5Z" fill="#6626fd" stroke="#6626fd"></path><path d="M230.7 314.5L282.3 319.5L271 302.6Z" fill="#6a47f9" stroke="#6a47f9"></path><path d="M410.7 0L373.3 24.2L397.7 42.2Z" fill="#6839fb" stroke="#6839fb"></path><path d="M340.7 69.1L324 54.1L294.3 95.1Z" fill="#6619fe" stroke="#6619fe"></path><path d="M559.3 0L480.3 111.1L614.7 22.1Z" fill="#6a47f9" stroke="#6a47f9"></path><path d="M436.7 20.1L410.7 0L397.7 42.2Z" fill="#6730fc" stroke="#6730fc"></path><path d="M373.3 24.2L324 54.1L340.7 69.1Z" fill="#6a47f9" stroke="#6a47f9"></path><path d="M694.3 108.1L687.7 120.3L704.7 119.4Z" fill="#6626fd" stroke="#6626fd"></path><path d="M687.7 120.3L685 93.3L636.3 111.3Z" fill="#6600ff" stroke="#6600ff"></path><path d="M735 219.5L659.7 223.3L701.3 299.5Z" fill="#6d52f6" stroke="#6d52f6"></path><path d="M690.7 107.2L685 93.3L687.7 120.3Z" fill="#6839fb" stroke="#6839fb"></path><path d="M694.3 108.1L685 93.3L690.7 107.2Z" fill="#6c4df7" stroke="#6c4df7"></path><path d="M645.7 399.7L695.3 376.6L650 342.5Z" fill="#6a47f9" stroke="#6a47f9"></path><path d="M661.3 424.7L645.7 399.7L615.7 422.6Z" fill="#6619fe" stroke="#6619fe"></path><path d="M473 -13.9L410.7 0L436.7 20.1Z" fill="#6c4df7" stroke="#6c4df7"></path><path d="M312 0L283.3 71.1L324 54.1Z" fill="#6f58f4" stroke="#6f58f4"></path><path d="M750.7 248.5L735 219.5L701.3 299.5Z" fill="#6d52f6" stroke="#6d52f6"></path><path d="M745.3 155.4L704.7 119.4L687.7 120.3Z" fill="#6a47f9" stroke="#6a47f9"></path><path d="M708 0L759.7 24.1L738.3 0Z" fill="#6839fb" stroke="#6839fb"></path><path d="M614.7 22.1L480.3 111.1L636.3 111.3Z" fill="#6600ff" stroke="#6600ff"></path><path d="M684 17.2L658.7 56.2L685 93.3Z" fill="#6a47f9" stroke="#6a47f9"></path><path d="M685 93.3L658.7 56.2L636.3 111.3Z" fill="#6730fc" stroke="#6730fc"></path><path d="M576.3 463.8L661.3 424.7L615.7 422.6Z" fill="#6839fb" stroke="#6839fb"></path><path d="M520 0L473 -13.9L436.7 20.1Z" fill="#6a47f9" stroke="#6a47f9"></path><path d="M559.3 0L473 -13.9L520 0Z" fill="#6f58f4" stroke="#6f58f4"></path><path d="M658.7 56.2L614.7 22.1L636.3 111.3Z" fill="#6619fe" stroke="#6619fe"></path><path d="M283.3 71.1L265.7 106.3L294.3 95.1Z" fill="#6d52f6" stroke="#6d52f6"></path><path d="M294.3 95.1L265.7 106.3L288 116.4Z" fill="#6730fc" stroke="#6730fc"></path><path d="M216 121.3L236.7 170.2L279 131.2Z" fill="#6d52f6" stroke="#6d52f6"></path><path d="M254.7 172.4L236.7 170.2L271 302.6Z" fill="#6626fd" stroke="#6626fd"></path><path d="M307.7 391.8L308.3 432.9L340.3 418.7Z" fill="#6f58f4" stroke="#6f58f4"></path><path d="M340.3 418.7L308.3 432.9L345.7 420.9Z" fill="#6940fa" stroke="#6940fa"></path><path d="M345.7 420.9L368.7 480.9L388 393.8Z" fill="#6a47f9" stroke="#6a47f9"></path><path d="M274 422.7L308.3 432.9L307.7 391.8Z" fill="#6c4df7" stroke="#6c4df7"></path><path d="M324 54.1L283.3 71.1L294.3 95.1Z" fill="#715df2" stroke="#715df2"></path><path d="M322.7 0L324 54.1L373.3 24.2Z" fill="#6626fd" stroke="#6626fd"></path><path d="M175.7 205.3L230.7 314.5L271 302.6Z" fill="#6619fe" stroke="#6619fe"></path><path d="M275.3 363.7L274 422.7L307.7 391.8Z" fill="#6c4df7" stroke="#6c4df7"></path><path d="M308.3 432.9L368.7 480.9L345.7 420.9Z" fill="#6a47f9" stroke="#6a47f9"></path><path d="M496.7 466.7L562 540L576.3 463.8Z" fill="#6c4df7" stroke="#6c4df7"></path><path d="M473 -13.9L372.3 0L410.7 0Z" fill="#6839fb" stroke="#6839fb"></path><path d="M410.7 0L372.3 0L373.3 24.2Z" fill="#6c4df7" stroke="#6c4df7"></path><path d="M782.3 315.5L701.3 299.5L708.7 325.5Z" fill="#6d52f6" stroke="#6d52f6"></path><path d="M782.3 315.5L750.7 248.5L701.3 299.5Z" fill="#6f58f4" stroke="#6f58f4"></path><path d="M735 219.5L745.3 155.4L659.7 223.3Z" fill="#6619fe" stroke="#6619fe"></path><path d="M615 -16.9L598.7 0L614.7 22.1Z" fill="#6c4df7" stroke="#6c4df7"></path><path d="M614.7 22.1L598.7 0L559.3 0Z" fill="#6f58f4" stroke="#6f58f4"></path><path d="M559.3 0L615 -16.9L473 -13.9Z" fill="#6940fa" stroke="#6940fa"></path><path d="M216 121.3L220.3 165.3L236.7 170.2Z" fill="#715df2" stroke="#715df2"></path><path d="M180 293.5L203.3 317.6L230.7 314.5Z" fill="#6940fa" stroke="#6940fa"></path><path d="M216 121.3L279 131.2L265.7 106.3Z" fill="#715df2" stroke="#715df2"></path><path d="M774.3 196.4L745.3 155.4L735 219.5Z" fill="#715df2" stroke="#715df2"></path><path d="M772 70.1L685 93.3L694.3 108.1Z" fill="#715df2" stroke="#715df2"></path><path d="M234.7 456.7L274 422.7L172.7 393.8Z" fill="#6600ff" stroke="#6600ff"></path><path d="M308.3 432.9L310 540L368.7 480.9Z" fill="#6619fe" stroke="#6619fe"></path><path d="M213.3 71.2L246 95.3L283.3 71.1Z" fill="#715df2" stroke="#715df2"></path><path d="M283.3 71.1L246 95.3L265.7 106.3Z" fill="#6619fe" stroke="#6619fe"></path><path d="M774.3 196.4L753 144.3L745.3 155.4Z" fill="#6d52f6" stroke="#6d52f6"></path><path d="M745.3 155.4L753 144.3L704.7 119.4Z" fill="#6d52f6" stroke="#6d52f6"></path><path d="M684 17.2L615 -16.9L614.7 22.1Z" fill="#6a47f9" stroke="#6a47f9"></path><path d="M684 17.2L614.7 22.1L658.7 56.2Z" fill="#6d52f6" stroke="#6d52f6"></path><path d="M598.7 0L615 -16.9L559.3 0Z" fill="#6940fa" stroke="#6940fa"></path><path d="M180 293.5L230.7 314.5L175.7 205.3Z" fill="#6f58f4" stroke="#6f58f4"></path><path d="M230.7 314.5L203.3 317.6L275.3 363.7Z" fill="#6730fc" stroke="#6730fc"></path><path d="M473 -13.9L322.7 0L372.3 0Z" fill="#6839fb" stroke="#6839fb"></path><path d="M372.3 0L322.7 0L373.3 24.2Z" fill="#6619fe" stroke="#6619fe"></path><path d="M745.7 456.8L756.7 341.7L695.3 376.6Z" fill="#6d52f6" stroke="#6d52f6"></path><path d="M695.3 376.6L756.7 341.7L708.7 325.5Z" fill="#6600ff" stroke="#6600ff"></path><path d="M750.7 248.5L774.3 196.4L735 219.5Z" fill="#6940fa" stroke="#6940fa"></path><path d="M661.3 424.7L696 441.8L695.3 376.6Z" fill="#6940fa" stroke="#6940fa"></path><path d="M718 515.9L696 441.8L661.3 424.7Z" fill="#6c4df7" stroke="#6c4df7"></path><path d="M213.3 71.2L216 121.3L246 95.3Z" fill="#6f58f4" stroke="#6f58f4"></path><path d="M246 95.3L216 121.3L265.7 106.3Z" fill="#6730fc" stroke="#6730fc"></path><path d="M175.7 205.3L271 302.6L236.7 170.2Z" fill="#715df2" stroke="#715df2"></path><path d="M827.3 213.5L774.3 196.4L750.7 248.5Z" fill="#715df2" stroke="#715df2"></path><path d="M473 -13.9L312 0L322.7 0Z" fill="#6f58f4" stroke="#6f58f4"></path><path d="M322.7 0L312 0L324 54.1Z" fill="#715df2" stroke="#715df2"></path><path d="M435.3 540L445 446.7L435 540Z" fill="#6d52f6" stroke="#6d52f6"></path><path d="M435.3 540L462.7 540L445 446.7Z" fill="#6940fa" stroke="#6940fa"></path><path d="M576.3 463.8L718 515.9L661.3 424.7Z" fill="#6626fd" stroke="#6626fd"></path><path d="M769.3 102.2L694.3 108.1L704.7 119.4Z" fill="#6940fa" stroke="#6940fa"></path><path d="M216 121.3L196.3 150.4L220.3 165.3Z" fill="#6730fc" stroke="#6730fc"></path><path d="M435 540L445 446.7L368.7 480.9Z" fill="#715df2" stroke="#715df2"></path><path d="M409 546.9L435 540L368.7 480.9Z" fill="#6c4df7" stroke="#6c4df7"></path><path d="M175.7 205.3L236.7 170.2L220.3 165.3Z" fill="#6c4df7" stroke="#6c4df7"></path><path d="M172.7 393.8L274 422.7L275.3 363.7Z" fill="#6a47f9" stroke="#6a47f9"></path><path d="M812.7 351.6L782.3 315.5L756.7 341.7Z" fill="#6f58f4" stroke="#6f58f4"></path><path d="M756.7 341.7L782.3 315.5L708.7 325.5Z" fill="#6a47f9" stroke="#6a47f9"></path><path d="M462.7 540L562 540L496.7 466.7Z" fill="#6626fd" stroke="#6626fd"></path><path d="M216 121.3L188 150.2L196.3 150.4Z" fill="#6730fc" stroke="#6730fc"></path><path d="M196.3 150.4L175.7 205.3L220.3 165.3Z" fill="#6940fa" stroke="#6940fa"></path><path d="M137 116.4L188 150.2L216 121.3Z" fill="#6a47f9" stroke="#6a47f9"></path><path d="M188 150.2L175.7 205.3L196.3 150.4Z" fill="#6940fa" stroke="#6940fa"></path><path d="M562 540L568.3 540L576.3 463.8Z" fill="#6730fc" stroke="#6730fc"></path><path d="M568.3 540L575.7 540L576.3 463.8Z" fill="#6a47f9" stroke="#6a47f9"></path><path d="M435.3 540L409 546.9L462.7 540Z" fill="#715df2" stroke="#715df2"></path><path d="M462.7 540L409 546.9L562 540Z" fill="#6619fe" stroke="#6619fe"></path><path d="M562 540L409 546.9L568.3 540Z" fill="#6839fb" stroke="#6839fb"></path><path d="M568.3 540L409 546.9L575.7 540Z" fill="#6839fb" stroke="#6839fb"></path><path d="M435 540L409 546.9L435.3 540Z" fill="#6a47f9" stroke="#6a47f9"></path><path d="M310 540L409 546.9L368.7 480.9Z" fill="#6619fe" stroke="#6619fe"></path><path d="M866 130.4L769.3 102.2L753 144.3Z" fill="#715df2" stroke="#715df2"></path><path d="M753 144.3L769.3 102.2L704.7 119.4Z" fill="#6c4df7" stroke="#6c4df7"></path><path d="M772 70.1L769.3 102.2L807.3 57.2Z" fill="#6a47f9" stroke="#6a47f9"></path><path d="M205.3 0L213.3 71.2L283.3 71.1Z" fill="#6a47f9" stroke="#6a47f9"></path><path d="M156.3 297.5L168.7 306.5L180 293.5Z" fill="#715df2" stroke="#715df2"></path><path d="M180 293.5L168.7 306.5L203.3 317.6Z" fill="#6a47f9" stroke="#6a47f9"></path><path d="M172.7 393.8L275.3 363.7L203.3 317.6Z" fill="#715df2" stroke="#715df2"></path><path d="M274 422.7L234.7 456.7L308.3 432.9Z" fill="#6d52f6" stroke="#6d52f6"></path><path d="M759.7 24.1L684 17.2L685 93.3Z" fill="#6c4df7" stroke="#6c4df7"></path><path d="M684 17.2L708 0L615 -16.9Z" fill="#6839fb" stroke="#6839fb"></path><path d="M136 246.5L156.3 297.5L180 293.5Z" fill="#715df2" stroke="#715df2"></path><path d="M168.7 306.5L156.7 339.5L203.3 317.6Z" fill="#6f58f4" stroke="#6f58f4"></path><path d="M866 130.4L753 144.3L774.3 196.4Z" fill="#6730fc" stroke="#6730fc"></path><path d="M769.3 102.2L772 70.1L694.3 108.1Z" fill="#6a47f9" stroke="#6a47f9"></path><path d="M718 515.9L741.3 459.8L696 441.8Z" fill="#6f58f4" stroke="#6f58f4"></path><path d="M696 441.8L745.7 456.8L695.3 376.6Z" fill="#6626fd" stroke="#6626fd"></path><path d="M741.3 459.8L745.7 456.8L696 441.8Z" fill="#6600ff" stroke="#6600ff"></path><path d="M156.3 297.5L156.7 339.5L168.7 306.5Z" fill="#6839fb" stroke="#6839fb"></path><path d="M172.7 393.8L228 472.9L234.7 456.7Z" fill="#6626fd" stroke="#6626fd"></path><path d="M234.7 456.7L310 540L308.3 432.9Z" fill="#6600ff" stroke="#6600ff"></path><path d="M831.7 267.4L750.7 248.5L782.3 315.5Z" fill="#6619fe" stroke="#6619fe"></path><path d="M831.7 267.4L827.3 213.5L750.7 248.5Z" fill="#6940fa" stroke="#6940fa"></path><path d="M228 472.9L310 540L234.7 456.7Z" fill="#6600ff" stroke="#6600ff"></path><path d="M156.7 339.5L172.7 393.8L203.3 317.6Z" fill="#6940fa" stroke="#6940fa"></path><path d="M804 435.8L812.7 351.6L756.7 341.7Z" fill="#6d52f6" stroke="#6d52f6"></path><path d="M99 317.7L117 366.8L156.7 339.5Z" fill="#6a47f9" stroke="#6a47f9"></path><path d="M175.7 205.3L136 246.5L180 293.5Z" fill="#6619fe" stroke="#6619fe"></path><path d="M135.7 165.4L136 246.5L175.7 205.3Z" fill="#6c4df7" stroke="#6c4df7"></path><path d="M135.7 165.4L175.7 205.3L188 150.2Z" fill="#6839fb" stroke="#6839fb"></path><path d="M812.7 351.6L831.7 267.4L782.3 315.5Z" fill="#6d52f6" stroke="#6d52f6"></path><path d="M759.7 24.1L708 0L684 17.2Z" fill="#6940fa" stroke="#6940fa"></path><path d="M708 0L738.3 0L615 -16.9Z" fill="#6600ff" stroke="#6600ff"></path><path d="M807 32.2L759.7 24.1L772 70.1Z" fill="#6a47f9" stroke="#6a47f9"></path><path d="M772 70.1L759.7 24.1L685 93.3Z" fill="#6619fe" stroke="#6619fe"></path><path d="M234.3 564.9L311 548.9L310 540Z" fill="#6940fa" stroke="#6940fa"></path><path d="M310 540L311 548.9L409 546.9Z" fill="#6839fb" stroke="#6839fb"></path><path d="M759.7 24.1L741.7 0L738.3 0Z" fill="#6839fb" stroke="#6839fb"></path><path d="M738.3 0L741.7 0L615 -16.9Z" fill="#6600ff" stroke="#6600ff"></path><path d="M137 116.4L135.7 165.4L188 150.2Z" fill="#6c4df7" stroke="#6c4df7"></path><path d="M575.7 540L718 515.9L576.3 463.8Z" fill="#6626fd" stroke="#6626fd"></path><path d="M741.3 459.8L756 512.9L745.7 456.8Z" fill="#6600ff" stroke="#6600ff"></path><path d="M745.7 456.8L804 435.8L756.7 341.7Z" fill="#6f58f4" stroke="#6f58f4"></path><path d="M113.7 80.1L137 116.4L126.7 44.2Z" fill="#6619fe" stroke="#6619fe"></path><path d="M213.3 71.2L137 116.4L216 121.3Z" fill="#6940fa" stroke="#6940fa"></path><path d="M312 0L205.3 0L283.3 71.1Z" fill="#6f58f4" stroke="#6f58f4"></path><path d="M473 -13.9L205.3 0L312 0Z" fill="#6940fa" stroke="#6940fa"></path><path d="M730 540L727.3 522.9L718 515.9Z" fill="#715df2" stroke="#715df2"></path><path d="M718 515.9L756 512.9L741.3 459.8Z" fill="#6626fd" stroke="#6626fd"></path><path d="M830.7 79.1L807.3 57.2L769.3 102.2Z" fill="#6c4df7" stroke="#6c4df7"></path><path d="M759.7 24.1L803.3 0L741.7 0Z" fill="#6730fc" stroke="#6730fc"></path><path d="M808.7 510.9L804 435.8L745.7 456.8Z" fill="#6600ff" stroke="#6600ff"></path><path d="M897.7 231.5L877 231.5L831.7 267.4Z" fill="#6839fb" stroke="#6839fb"></path><path d="M866 130.4L830.7 79.1L769.3 102.2Z" fill="#6f58f4" stroke="#6f58f4"></path><path d="M866 130.4L774.3 196.4L827.3 213.5Z" fill="#6c4df7" stroke="#6c4df7"></path><path d="M172.7 393.8L114.7 420.9L228 472.9Z" fill="#6a47f9" stroke="#6a47f9"></path><path d="M228 472.9L223.7 540L310 540Z" fill="#715df2" stroke="#715df2"></path><path d="M156.7 339.5L133.3 398.8L172.7 393.8Z" fill="#6d52f6" stroke="#6d52f6"></path><path d="M117 366.8L133.3 398.8L156.7 339.5Z" fill="#715df2" stroke="#715df2"></path><path d="M156.7 339.5L156.3 297.5L99 317.7Z" fill="#6940fa" stroke="#6940fa"></path><path d="M727.3 522.9L756 512.9L718 515.9Z" fill="#6619fe" stroke="#6619fe"></path><path d="M830.7 79.1L807 32.2L807.3 57.2Z" fill="#6d52f6" stroke="#6d52f6"></path><path d="M807.3 57.2L807 32.2L772 70.1Z" fill="#6940fa" stroke="#6940fa"></path><path d="M575.7 540L730 540L718 515.9Z" fill="#6a47f9" stroke="#6a47f9"></path><path d="M727.3 522.9L752.3 540L756 512.9Z" fill="#6619fe" stroke="#6619fe"></path><path d="M234.3 564.9L730 540L575.7 540Z" fill="#6600ff" stroke="#6600ff"></path><path d="M99 317.7L156.3 297.5L136 246.5Z" fill="#715df2" stroke="#715df2"></path><path d="M93.3 212.4L136 246.5L135.7 165.4Z" fill="#6f58f4" stroke="#6f58f4"></path><path d="M74.3 167.5L93.3 212.4L135.7 165.4Z" fill="#6600ff" stroke="#6600ff"></path><path d="M59.3 276.6L99 317.7L136 246.5Z" fill="#715df2" stroke="#715df2"></path><path d="M852 381.6L831.7 267.4L812.7 351.6Z" fill="#6d52f6" stroke="#6d52f6"></path><path d="M831.7 267.4L877 231.5L827.3 213.5Z" fill="#6c4df7" stroke="#6c4df7"></path><path d="M864.3 396.6L852 381.6L804 435.8Z" fill="#6d52f6" stroke="#6d52f6"></path><path d="M804 435.8L852 381.6L812.7 351.6Z" fill="#6a47f9" stroke="#6a47f9"></path><path d="M219 540L223.7 540L228 472.9Z" fill="#6730fc" stroke="#6730fc"></path><path d="M884.3 150.3L866 130.4L827.3 213.5Z" fill="#6626fd" stroke="#6626fd"></path><path d="M806 0L803.3 0L807 32.2Z" fill="#6730fc" stroke="#6730fc"></path><path d="M177.3 540L219 540L228 472.9Z" fill="#6f58f4" stroke="#6f58f4"></path><path d="M223.7 540L234.3 564.9L310 540Z" fill="#6839fb" stroke="#6839fb"></path><path d="M897.7 231.5L881.7 214.3L877 231.5Z" fill="#6839fb" stroke="#6839fb"></path><path d="M877 231.5L881.7 214.3L827.3 213.5Z" fill="#6619fe" stroke="#6619fe"></path><path d="M806 0L807 32.2L886.3 87.1Z" fill="#6626fd" stroke="#6626fd"></path><path d="M807 32.2L803.3 0L759.7 24.1Z" fill="#6600ff" stroke="#6600ff"></path><path d="M741.7 0L803.3 0L615 -16.9Z" fill="#6619fe" stroke="#6619fe"></path><path d="M234.3 564.9L752.3 540L730 540Z" fill="#6940fa" stroke="#6940fa"></path><path d="M730 540L752.3 540L727.3 522.9Z" fill="#6839fb" stroke="#6839fb"></path><path d="M756 512.9L808.7 510.9L745.7 456.8Z" fill="#6600ff" stroke="#6600ff"></path><path d="M234.3 564.9L575.7 540L409 546.9Z" fill="#6730fc" stroke="#6730fc"></path><path d="M886.3 87.1L807 32.2L830.7 79.1Z" fill="#6839fb" stroke="#6839fb"></path><path d="M803.3 0L806 0L615 -16.9Z" fill="#6730fc" stroke="#6730fc"></path><path d="M59.3 276.6L91 334.6L99 317.7Z" fill="#6940fa" stroke="#6940fa"></path><path d="M99 317.7L91 334.6L117 366.8Z" fill="#6d52f6" stroke="#6d52f6"></path><path d="M99.7 416.6L114.7 420.9L133.3 398.8Z" fill="#6600ff" stroke="#6600ff"></path><path d="M133.3 398.8L114.7 420.9L172.7 393.8Z" fill="#6600ff" stroke="#6600ff"></path><path d="M126.7 44.2L137 116.4L213.3 71.2Z" fill="#6619fe" stroke="#6619fe"></path><path d="M137 116.4L74.3 167.5L135.7 165.4Z" fill="#6730fc" stroke="#6730fc"></path><path d="M91 334.6L91.7 348.7L117 366.8Z" fill="#715df2" stroke="#715df2"></path><path d="M0 324.6L90.3 348.7L91 334.6Z" fill="#6f58f4" stroke="#6f58f4"></path><path d="M91 334.6L90.3 348.7L91.7 348.7Z" fill="#6d52f6" stroke="#6d52f6"></path><path d="M91.7 348.7L90.3 348.7L117 366.8Z" fill="#6600ff" stroke="#6600ff"></path><path d="M205.3 0L126.7 44.2L213.3 71.2Z" fill="#6c4df7" stroke="#6c4df7"></path><path d="M219 540L234.3 564.9L223.7 540Z" fill="#6839fb" stroke="#6839fb"></path><path d="M311 548.9L234.3 564.9L409 546.9Z" fill="#6730fc" stroke="#6730fc"></path><path d="M177.3 540L234.3 564.9L219 540Z" fill="#6626fd" stroke="#6626fd"></path><path d="M99.7 416.6L133.3 398.8L117 366.8Z" fill="#6839fb" stroke="#6839fb"></path><path d="M881.7 214.3L884.3 150.3L827.3 213.5Z" fill="#6c4df7" stroke="#6c4df7"></path><path d="M866 130.4L886.3 87.1L830.7 79.1Z" fill="#715df2" stroke="#715df2"></path><path d="M871.7 403.6L864.3 396.6L871 405.7Z" fill="#6839fb" stroke="#6839fb"></path><path d="M960 284.5L897.7 231.5L831.7 267.4Z" fill="#6c4df7" stroke="#6c4df7"></path><path d="M234.3 564.9L766.7 540L752.3 540Z" fill="#6619fe" stroke="#6619fe"></path><path d="M752.3 540L766.7 540L756 512.9Z" fill="#6a47f9" stroke="#6a47f9"></path><path d="M911.7 372.5L831.7 267.4L852 381.6Z" fill="#6c4df7" stroke="#6c4df7"></path><path d="M881.7 214.3L960 188.3L884.3 150.3Z" fill="#6a47f9" stroke="#6a47f9"></path><path d="M87 100.1L74.3 167.5L137 116.4Z" fill="#6730fc" stroke="#6730fc"></path><path d="M93.3 212.4L59.3 276.6L136 246.5Z" fill="#6626fd" stroke="#6626fd"></path><path d="M87 100.1L137 116.4L113.7 80.1Z" fill="#6730fc" stroke="#6730fc"></path><path d="M205.3 0L123.3 28.2L126.7 44.2Z" fill="#6d52f6" stroke="#6d52f6"></path><path d="M126.7 44.2L95.3 12.1L113.7 80.1Z" fill="#6f58f4" stroke="#6f58f4"></path><path d="M871 405.7L864.3 396.6L804 435.8Z" fill="#6a47f9" stroke="#6a47f9"></path><path d="M864.3 396.6L911.7 372.5L852 381.6Z" fill="#6730fc" stroke="#6730fc"></path><path d="M848.3 481.9L871 405.7L804 435.8Z" fill="#6600ff" stroke="#6600ff"></path><path d="M95.3 12.1L87 100.1L113.7 80.1Z" fill="#6940fa" stroke="#6940fa"></path><path d="M87.3 413.8L99.7 416.6L117 366.8Z" fill="#6600ff" stroke="#6600ff"></path><path d="M114.7 420.9L177.3 540L228 472.9Z" fill="#6619fe" stroke="#6619fe"></path><path d="M766.7 540L808.7 510.9L756 512.9Z" fill="#6839fb" stroke="#6839fb"></path><path d="M39.3 252.5L59.3 276.6L93.3 212.4Z" fill="#6839fb" stroke="#6839fb"></path><path d="M90.3 348.7L87.3 413.8L117 366.8Z" fill="#6730fc" stroke="#6730fc"></path><path d="M121.3 550.9L177.3 540L114.7 420.9Z" fill="#6940fa" stroke="#6940fa"></path><path d="M884.3 150.3L886.3 87.1L866 130.4Z" fill="#6600ff" stroke="#6600ff"></path><path d="M912.7 87.2L886.3 87.1L884.3 150.3Z" fill="#6f58f4" stroke="#6f58f4"></path><path d="M0 367.8L87.3 413.8L90.3 348.7Z" fill="#6d52f6" stroke="#6d52f6"></path><path d="M74.7 540L121.3 550.9L114.7 420.9Z" fill="#6c4df7" stroke="#6c4df7"></path><path d="M205.3 0L125 0L123.3 28.2Z" fill="#6839fb" stroke="#6839fb"></path><path d="M123.3 28.2L95.3 12.1L126.7 44.2Z" fill="#6839fb" stroke="#6839fb"></path><path d="M473 -13.9L125 0L205.3 0Z" fill="#6600ff" stroke="#6600ff"></path><path d="M808.7 510.9L848.3 481.9L804 435.8Z" fill="#6940fa" stroke="#6940fa"></path><path d="M898.3 418.8L911.7 372.5L871.7 403.6Z" fill="#6c4df7" stroke="#6c4df7"></path><path d="M473 -13.9L117.7 0L125 0Z" fill="#715df2" stroke="#715df2"></path><path d="M125 0L117.7 0L123.3 28.2Z" fill="#6730fc" stroke="#6730fc"></path><path d="M858.7 503.9L851.7 485.8L808.7 510.9Z" fill="#6730fc" stroke="#6730fc"></path><path d="M808.7 510.9L851.7 485.8L848.3 481.9Z" fill="#6839fb" stroke="#6839fb"></path><path d="M848.3 481.9L898.3 418.8L871 405.7Z" fill="#6626fd" stroke="#6626fd"></path><path d="M0 206.4L39.3 252.5L93.3 212.4Z" fill="#6619fe" stroke="#6619fe"></path><path d="M59.3 276.6L0 324.6L91 334.6Z" fill="#6a47f9" stroke="#6a47f9"></path><path d="M0 235.5L39.3 252.5L0 206.4Z" fill="#6d52f6" stroke="#6d52f6"></path><path d="M93.3 212.4L74.3 167.5L0 206.4Z" fill="#6730fc" stroke="#6730fc"></path><path d="M766.7 540L817.3 540L808.7 510.9Z" fill="#6600ff" stroke="#6600ff"></path><path d="M234.3 564.9L817.3 540L766.7 540Z" fill="#715df2" stroke="#715df2"></path><path d="M898.3 418.8L871.7 403.6L871 405.7Z" fill="#6839fb" stroke="#6839fb"></path><path d="M871.7 403.6L911.7 372.5L864.3 396.6Z" fill="#6c4df7" stroke="#6c4df7"></path><path d="M960 188.3L912.7 87.2L884.3 150.3Z" fill="#6f58f4" stroke="#6f58f4"></path><path d="M117.7 0L95.3 12.1L123.3 28.2Z" fill="#6619fe" stroke="#6619fe"></path><path d="M919.3 424.7L898.3 418.8L851.7 485.8Z" fill="#6619fe" stroke="#6619fe"></path><path d="M851.7 485.8L898.3 418.8L848.3 481.9Z" fill="#6a47f9" stroke="#6a47f9"></path><path d="M960 202.4L881.7 214.3L897.7 231.5Z" fill="#6730fc" stroke="#6730fc"></path><path d="M886.3 87.1L960 0L806 0Z" fill="#6600ff" stroke="#6600ff"></path><path d="M817.3 540L858.7 503.9L808.7 510.9Z" fill="#6d52f6" stroke="#6d52f6"></path><path d="M858.7 503.9L919.3 424.7L851.7 485.8Z" fill="#6600ff" stroke="#6600ff"></path><path d="M898.3 418.8L919.3 424.7L911.7 372.5Z" fill="#6f58f4" stroke="#6f58f4"></path><path d="M960 284.5L960 202.4L897.7 231.5Z" fill="#6619fe" stroke="#6619fe"></path><path d="M74.7 540L99.7 416.6L87.3 413.8Z" fill="#6940fa" stroke="#6940fa"></path><path d="M74.7 540L114.7 420.9L99.7 416.6Z" fill="#6d52f6" stroke="#6d52f6"></path><path d="M177.3 540L121.3 550.9L234.3 564.9Z" fill="#715df2" stroke="#715df2"></path><path d="M960 284.5L831.7 267.4L960 319.6Z" fill="#6619fe" stroke="#6619fe"></path><path d="M960 319.6L831.7 267.4L911.7 372.5Z" fill="#6730fc" stroke="#6730fc"></path><path d="M960 202.4L960 188.3L881.7 214.3Z" fill="#6a47f9" stroke="#6a47f9"></path><path d="M960 326.5L960 319.6L911.7 372.5Z" fill="#6a47f9" stroke="#6a47f9"></path><path d="M0 206.4L74.3 167.5L0 196.5Z" fill="#715df2" stroke="#715df2"></path><path d="M39.3 252.5L0 324.6L59.3 276.6Z" fill="#6940fa" stroke="#6940fa"></path><path d="M960 327.7L960 326.5L911.7 372.5Z" fill="#6f58f4" stroke="#6f58f4"></path><path d="M919.3 424.7L960 327.7L911.7 372.5Z" fill="#6839fb" stroke="#6839fb"></path><path d="M0 196.5L74.3 167.5L0 141.2Z" fill="#6619fe" stroke="#6619fe"></path><path d="M0 141.2L74.3 167.5L0 120.3Z" fill="#6626fd" stroke="#6626fd"></path><path d="M0 235.5L0 324.6L39.3 252.5Z" fill="#6c4df7" stroke="#6c4df7"></path><path d="M0 120.3L74.3 167.5L87 100.1Z" fill="#715df2" stroke="#715df2"></path><path d="M0 324.6L0 355.7L90.3 348.7Z" fill="#6619fe" stroke="#6619fe"></path><path d="M0 115.1L0 120.3L87 100.1Z" fill="#6730fc" stroke="#6730fc"></path><path d="M960 475.9L977.7 312.7L960 327.7Z" fill="#6d52f6" stroke="#6d52f6"></path><path d="M960 327.7L977.7 312.7L960 326.5Z" fill="#6626fd" stroke="#6626fd"></path><path d="M960 326.5L977.7 312.7L960 319.6Z" fill="#6839fb" stroke="#6839fb"></path><path d="M960 319.6L977.7 312.7L960 284.5Z" fill="#6730fc" stroke="#6730fc"></path><path d="M960 284.5L977.7 312.7L960 202.4Z" fill="#6c4df7" stroke="#6c4df7"></path><path d="M960 202.4L977.7 312.7L960 188.3Z" fill="#6600ff" stroke="#6600ff"></path><path d="M0 355.7L0 367.8L90.3 348.7Z" fill="#6730fc" stroke="#6730fc"></path><path d="M27.3 0L0 115.1L87 100.1Z" fill="#6d52f6" stroke="#6d52f6"></path><path d="M858.7 503.9L960 475.9L919.3 424.7Z" fill="#715df2" stroke="#715df2"></path><path d="M919.3 424.7L960 475.9L960 327.7Z" fill="#6a47f9" stroke="#6a47f9"></path><path d="M817.3 540L884.7 540L858.7 503.9Z" fill="#715df2" stroke="#715df2"></path><path d="M234.3 564.9L884.7 540L817.3 540Z" fill="#6839fb" stroke="#6839fb"></path><path d="M0 453.9L74.7 540L87.3 413.8Z" fill="#6730fc" stroke="#6730fc"></path><path d="M0 115.1L-22.7 149.3L0 120.3Z" fill="#6839fb" stroke="#6839fb"></path><path d="M0 120.3L-22.7 149.3L0 141.2Z" fill="#715df2" stroke="#715df2"></path><path d="M0 141.2L-22.7 149.3L0 196.5Z" fill="#6c4df7" stroke="#6c4df7"></path><path d="M0 196.5L-22.7 149.3L0 206.4Z" fill="#6619fe" stroke="#6619fe"></path><path d="M0 206.4L-22.7 149.3L0 235.5Z" fill="#6839fb" stroke="#6839fb"></path><path d="M0 235.5L-22.7 149.3L0 324.6Z" fill="#6f58f4" stroke="#6f58f4"></path><path d="M0 324.6L-22.7 149.3L0 355.7Z" fill="#6a47f9" stroke="#6a47f9"></path><path d="M0 355.7L-22.7 149.3L0 367.8Z" fill="#6600ff" stroke="#6600ff"></path><path d="M117.7 0L27.3 0L95.3 12.1Z" fill="#6c4df7" stroke="#6c4df7"></path><path d="M95.3 12.1L27.3 0L87 100.1Z" fill="#6c4df7" stroke="#6c4df7"></path><path d="M0 115.1L0 0L-22.7 149.3Z" fill="#6c4df7" stroke="#6c4df7"></path><path d="M473 -13.9L27.3 0L117.7 0Z" fill="#6600ff" stroke="#6600ff"></path><path d="M960 188.3L960 27.1L912.7 87.2Z" fill="#6619fe" stroke="#6619fe"></path><path d="M912.7 87.2L960 27.1L886.3 87.1Z" fill="#6839fb" stroke="#6839fb"></path><path d="M962.7 0L960 27.1L960 188.3Z" fill="#6626fd" stroke="#6626fd"></path><path d="M962.7 0L960 22.2L960 27.1Z" fill="#6619fe" stroke="#6619fe"></path><path d="M960 27.1L960 22.2L886.3 87.1Z" fill="#6d52f6" stroke="#6d52f6"></path><path d="M0 367.8L0 453.9L87.3 413.8Z" fill="#6f58f4" stroke="#6f58f4"></path><path d="M-22.7 149.3L0 453.9L0 367.8Z" fill="#6940fa" stroke="#6940fa"></path><path d="M960 508.8L960 475.9L858.7 503.9Z" fill="#6626fd" stroke="#6626fd"></path><path d="M962.7 0L960 0L960 22.2Z" fill="#6839fb" stroke="#6839fb"></path><path d="M960 22.2L960 0L886.3 87.1Z" fill="#6c4df7" stroke="#6c4df7"></path><path d="M806 0L960 0L615 -16.9Z" fill="#6839fb" stroke="#6839fb"></path><path d="M977.7 312.7L962.7 0L960 188.3Z" fill="#6730fc" stroke="#6730fc"></path><path d="M960 0L962.7 0L615 -16.9Z" fill="#6940fa" stroke="#6940fa"></path><path d="M473 -13.9L0 0L27.3 0Z" fill="#6600ff" stroke="#6600ff"></path><path d="M27.3 0L0 0L0 115.1Z" fill="#6730fc" stroke="#6730fc"></path><path d="M884.7 540L960 508.8L858.7 503.9Z" fill="#6f58f4" stroke="#6f58f4"></path><path d="M960 475.9L960 508.8L977.7 312.7Z" fill="#6d52f6" stroke="#6d52f6"></path><path d="M0 453.9L19.3 540L74.7 540Z" fill="#6619fe" stroke="#6619fe"></path><path d="M74.7 540L19.3 540L121.3 550.9Z" fill="#6c4df7" stroke="#6c4df7"></path><path d="M121.3 550.9L0 540L234.3 564.9Z" fill="#6730fc" stroke="#6730fc"></path><path d="M234.3 564.9L960 540L884.7 540Z" fill="#6d52f6" stroke="#6d52f6"></path><path d="M884.7 540L960 540L960 508.8Z" fill="#6619fe" stroke="#6619fe"></path><path d="M960 508.8L960 540L977.7 312.7Z" fill="#6d52f6" stroke="#6d52f6"></path><path d="M-22.7 149.3L0 540L0 453.9Z" fill="#6626fd" stroke="#6626fd"></path><path d="M0 453.9L0 540L19.3 540Z" fill="#6a47f9" stroke="#6a47f9"></path><path d="M19.3 540L0 540L121.3 550.9Z" fill="#6a47f9" stroke="#6a47f9"></path></g></svg>